# xmcd CD database file
#
# Track frame offsets:
#	150
#	19487
#	36790
#
# Disc length: 693 seconds
#
# Revision: 0
# Processed by: cddbd v1.5PL3 Copyright (c) Steve Scherf et al.
# Submitted via: CDex 1.50beta9
#
DISCID=1f02b303
DTITLE=新井直樹 - 白鳥麗子でございます！
DYEAR=1993
DGENRE=Anime
TTITLE0=麗子のテーマ　（帰れソレントへ）
TTITLE1=麗子のサブ・テーマ　（マンマ）
TTITLE2=かきつばたあやめのテーマ　（オー・ソレ・ミオ）
EXTD=YEAR: 1993
EXTT0=
EXTT1=
EXTT2=
PLAYORDER=
